<svg width="18" height="18" viewBox="0 0 18 18" fill="none" xmlns="http://www.w3.org/2000/svg">
<path fill-rule="evenodd" clip-rule="evenodd" d="M9 18C13.9706 18 18 13.9706 18 9C18 4.02944 13.9706 0 9 0C4.02944 0 0 4.02944 0 9C0 13.9706 4.02944 18 9 18ZM12.6562 10.6488V6.71133C12.6553 6.48784 12.5661 6.27376 12.4081 6.11573C12.2501 5.9577 12.036 5.8685 11.8125 5.86758H6.1875C5.96401 5.8685 5.74993 5.9577 5.5919 6.11573C5.43387 6.27376 5.34468 6.48784 5.34375 6.71133V10.6488C5.34375 10.8726 5.43264 11.0872 5.59088 11.2455C5.74911 11.4037 5.96372 11.4926 6.1875 11.4926H11.8125C12.0363 11.4926 12.2509 11.4037 12.4091 11.2455C12.5674 11.0872 12.6562 10.8726 12.6562 10.6488ZM7.67613 12.1375C7.72887 12.0847 7.80041 12.0551 7.875 12.0551H10.125C10.1996 12.0551 10.2711 12.0847 10.3239 12.1375C10.3766 12.1902 10.4062 12.2617 10.4062 12.3363C10.4062 12.4109 10.3766 12.4825 10.3239 12.5352C10.2711 12.5879 10.1996 12.6176 10.125 12.6176H7.875C7.80041 12.6176 7.72887 12.5879 7.67613 12.5352C7.62338 12.4825 7.59375 12.4109 7.59375 12.3363C7.59375 12.2617 7.62338 12.1902 7.67613 12.1375Z" fill="#D9DBE9"/>
</svg>
