<svg width="18" height="18" viewBox="0 0 18 18" fill="none" xmlns="http://www.w3.org/2000/svg">
<g clip-path="url(#clip0_3_652)">
<path d="M3.75829 8.57014C3.75827 8.46962 3.7782 8.37008 3.81693 8.27725C3.85566 8.18442 3.91243 8.10013 3.98397 8.02921C4.05551 7.95829 4.14043 7.90214 4.23383 7.86399C4.32723 7.82585 4.42728 7.80645 4.52823 7.80692L5.80471 7.81109C6.00824 7.81109 6.20343 7.89159 6.34735 8.0349C6.49127 8.1782 6.57212 8.37256 6.57212 8.57523V13.3815C6.71591 13.339 6.90033 13.2938 7.10236 13.2466C7.24263 13.2137 7.36764 13.1347 7.45713 13.0222C7.54661 12.9097 7.59532 12.7704 7.59536 12.6269V6.66521C7.59535 6.56485 7.61519 6.46546 7.65376 6.37274C7.69232 6.28001 7.74885 6.19575 7.82012 6.12478C7.89139 6.0538 7.97599 5.9975 8.06911 5.95909C8.16223 5.92067 8.26204 5.9009 8.36283 5.90089H9.64183C9.84536 5.90092 10.0405 5.98144 10.1844 6.12474C10.3284 6.26803 10.4092 6.46238 10.4092 6.66503V12.1985C10.4092 12.1985 10.7293 12.0694 11.0414 11.9383C11.1572 11.8895 11.2561 11.8078 11.3256 11.7034C11.3952 11.599 11.4323 11.4766 11.4324 11.3513V4.75452C11.4324 4.65418 11.4523 4.55481 11.4908 4.4621C11.5294 4.36939 11.5859 4.28516 11.6572 4.2142C11.7284 4.14324 11.813 4.08695 11.9061 4.04855C11.9992 4.01015 12.099 3.99038 12.1998 3.99038H13.4788C13.6823 3.99038 13.8775 4.07089 14.0214 4.21419C14.1654 4.35749 14.2462 4.55185 14.2463 4.75452V10.1866C15.3551 9.38644 16.4789 8.42395 17.3708 7.26668C17.5001 7.09869 17.5858 6.90143 17.62 6.69248C17.6542 6.48354 17.6359 6.26941 17.5668 6.0692C16.9634 4.31813 15.8315 2.79539 14.326 1.70918C12.8204 0.622973 11.0146 0.0263244 9.15561 0.000815924C4.14258 -0.0662387 -0.00041855 4.00846 7.38944e-05 9.00072C-0.00484828 10.5804 0.409219 12.1334 1.20041 13.5027C1.30952 13.69 1.47004 13.8424 1.66311 13.942C1.85619 14.0416 2.07379 14.0842 2.29037 14.0649C2.53235 14.0437 2.8336 14.0138 3.19173 13.9719C3.34761 13.9542 3.49152 13.8801 3.59605 13.7636C3.70059 13.6471 3.75844 13.4964 3.7586 13.3402V8.57014" fill="#D9DBE9"/>
<path d="M3.72434 16.2782C5.0696 17.2548 6.65937 17.841 8.31776 17.9719C9.97615 18.1029 11.6385 17.7735 13.1209 17.0201C14.6034 16.2668 15.8481 15.1189 16.7173 13.7035C17.5866 12.2881 18.0465 10.6603 18.0463 9.00021C18.0463 8.79298 18.0366 8.58808 18.0227 8.38428C14.7279 13.2877 8.64443 15.5801 3.72427 16.2784" fill="#D9DBE9"/>
</g>
<defs>
<clipPath id="clip0_3_652">
<rect width="18" height="18" fill="white"/>
</clipPath>
</defs>
</svg>
