<svg width="24" height="24" viewBox="0 0 24 24" fill="none" xmlns="http://www.w3.org/2000/svg">
<path d="M12 14.8085C11.5769 14.8085 11.234 14.3055 11.234 13.6851V10.3149C11.234 9.69442 11.5769 9.19145 12 9.19145C12.423 9.19145 12.7659 9.69442 12.7659 10.3149V13.6851C12.7659 14.3055 12.423 14.8085 12 14.8085Z" fill="white"/>
<path fill-rule="evenodd" clip-rule="evenodd" d="M3.42857 12C3.42857 16.7339 7.26613 20.5714 12 20.5714C16.7339 20.5714 20.5714 16.7339 20.5714 12C20.5714 7.26613 16.7339 3.42857 12 3.42857C7.26613 3.42857 3.42857 7.26613 3.42857 12ZM12 0C5.37258 0 0 5.37258 0 12C0 18.6274 5.37258 24 12 24C18.6274 24 24 18.6274 24 12C24 5.37258 18.6274 0 12 0Z" fill="white"/>
</svg>
