<svg width="56" height="56" viewBox="0 0 56 56" fill="none" xmlns="http://www.w3.org/2000/svg">
<rect width="56" height="56" rx="9" fill="black"/>
<path d="M28 30.8085C27.5769 30.8085 27.234 30.3055 27.234 29.6851V26.3149C27.234 25.6944 27.5769 25.1914 28 25.1914V25.1914C28.423 25.1914 28.7659 25.6944 28.7659 26.3149V29.6851C28.7659 30.3055 28.423 30.8085 28 30.8085V30.8085Z" fill="white"/>
<path fill-rule="evenodd" clip-rule="evenodd" d="M19.4286 28C19.4286 32.7339 23.2661 36.5714 28 36.5714C32.7339 36.5714 36.5714 32.7339 36.5714 28C36.5714 23.2661 32.7339 19.4286 28 19.4286C23.2661 19.4286 19.4286 23.2661 19.4286 28ZM28 16C21.3726 16 16 21.3726 16 28C16 34.6274 21.3726 40 28 40C34.6274 40 40 34.6274 40 28C40 21.3726 34.6274 16 28 16Z" fill="white"/>
</svg>
